<svg width="1837" height="548" viewBox="0 0 1837 548" fill="none" xmlns="http://www.w3.org/2000/svg">
<path d="M72.3865 318.591L307.801 18.2988H393.329L216.418 243.168L396.256 547.859H312.913L168.903 303.97L72.4084 426.276V547.859H0.75293V18.2988H72.3865V318.591Z" fill="#492D17"/>
<path d="M653.559 547.836C504.415 547.836 400.624 435.052 400.624 273.918C400.624 112.785 505.158 0 654.301 0C803.445 0 908.7 112.785 908.7 273.918C908.7 435.052 803.423 547.836 653.559 547.836ZM654.28 69.5794C546.818 69.5794 475.905 150.868 475.905 273.918C475.905 396.968 546.818 479.001 654.28 479.001C761.741 479.001 833.396 396.246 833.396 273.918C833.396 151.591 761.763 69.5794 654.28 69.5794Z" fill="#492D17"/>
<path d="M1370.57 547.837L1563.56 18.2988H1643.26L1836.99 547.837H1761.69L1714.17 416.011H1491.93L1445.14 547.837H1370.57ZM1513.86 353.742H1692.96L1611.82 132.55C1608.17 122.307 1604.5 109.853 1603.04 101.798C1601.58 109.131 1597.93 121.584 1594.26 132.55L1513.84 353.742H1513.86Z" fill="#492D17"/>
<path d="M1313.24 547.835H1236.37L1138.08 373.701L1039.73 547.835H962.851L1100.98 308.018L1101.29 307.492H1082.61C1010.21 307.492 975.828 270.306 975.828 202.324V18.2969H1044.6V191.446C1044.6 224.058 1061.84 240.408 1095.3 240.408H1180.83C1214.39 240.408 1231.54 224.058 1231.54 191.446V18.2969H1300.31V202.324C1300.31 264.002 1272.08 300.269 1212.79 306.507C1206.72 307.186 1200.28 307.492 1193.52 307.492H1174.85L1175.22 308.105L1313.26 547.857L1313.24 547.835Z" fill="#492D17"/>
<path d="M1138.04 134.539C1170.08 134.539 1196.05 108.522 1196.05 76.4288C1196.05 44.3353 1170.08 18.3184 1138.04 18.3184C1106.01 18.3184 1080.04 44.3353 1080.04 76.4288C1080.04 108.522 1106.01 134.539 1138.04 134.539Z" fill="#492D17"/>
</svg>
